<svg version="1.1" id="Layer_1" xmlns:xodm="http://www.corel.com/coreldraw/odm/2003" xmlns="http://www.w3.org/2000/svg" xmlns:xlink="http://www.w3.org/1999/xlink" x="0px" y="0px" viewBox="0 0 841.9 595.3" style="enable-background:new 0 0 841.9 595.3;" xml:space="preserve">
	 <title>Vibrt</title>
<style type="text/css">
	.st0{fill-rule:evenodd;clip-rule:evenodd;fill:#737373;}
	.st1{fill-rule:evenodd;clip-rule:evenodd;fill:#D5D4D4;}
</style>
<g id="Layer_x0020_1">
	<g>
		<path class="st0" d="M295.4,232.5L202.2,74.5l153.2-0.3l66.1,116.1c0.3,0.6,2.7,2.3,4.4-0.2c1.9-3,65.8-115.8,65.8-115.8h151.4
			h1.3l-91.9,158.5l-24.3-40.9l41-70.1c0,0,2.9-5.8-2.7-6.1l-50.4,0.6l-91.2,158.8c0,0-1.3,1.2-1.9-0.6L331.1,117l-53.5-0.9
			c0,0-2.8-0.1-1.4,3l42.5,72.9L295.4,232.5L295.4,232.5z"></path>
		<path class="st1" d="M348.8,173.5l21.9,37.5c1,1.7,0.4,4.1-1.2,6.4l-16.4,26.9c0,0-2.5,5,2,9.5l65.4,111.9c0,0,3.6,6.1,6.5,0.5
			L494,251c0,0,2.2-3.3,0-5.9l-17.4-27.3c0,0-2.1-3.2,0-6.7l20.2-33.6c0,0,3.3-4.4,7.6-0.3l37.9,65.9c0,0,3.5,3.1,0.8,9.2
			L428.2,452.3c0,0-5.2,3.9-8.1-0.5L303.3,252.3c0,0-2.6-5,1.1-9.7l41.7-69.7C346.7,172,347.7,171.9,348.8,173.5L348.8,173.5z"></path>
	</g>
	<g>
		<path class="st0" d="M292.4,497.4l17.4,50.7l10.1,0.4l15.7-51.3l-7.7-0.7l-11.1,32.5c0,0-2.1,3.3-3.8-1l-10.9-31.5l-9.8,0.1
			L292.4,497.4L292.4,497.4z"></path>
		<polygon class="st0" points="365.2,496.7 374.6,496.8 374.6,546.5 365.6,546.5 		"></polygon>
		<path class="st0" d="M405.7,497.2c2.4-0.3,24.4-3.7,26.1,17.5c0,0-0.4,0.9,1.4,1.9c0.8,0.2,2.3,2,4,3.8c6.6,6.9,4.4,24.4-9.2,27.2
			l-21.7,0.2h-0.7L405.7,497.2L405.7,497.2z M415.1,519.9l-0.2-11.8c0,0,1-2.1,3.5-1.3C425.1,510.5,421.8,523.5,415.1,519.9
			L415.1,519.9z M415.3,531.6c0,0,9.5-1.2,13.4-6.1c0,0,1-0.3,1.3,1.6v6.5c0,0-1.1,3.2-4.7,4.6h-8.1h-1.7L415.3,531.6z"></path>
		<path class="st0" d="M468.9,546.9v-49.4h21.1c1.8,0,1.9,0,3.7,0.7c2.5,1,6.4,3.2,8,7.2c0.7,1.7,0.7,2.3,0.9,4.2
			c0.9,9.1,1.9,11.9-6.5,19.1c0,0-1.4,1.5-0.2,3l7,14.6l-8.4,0.4l-7.7-15.1c-2.7-2.1-5.5-2.8-8.4,0.4l0.2,14.6L468.9,546.9
			L468.9,546.9z M478.5,521.8l-0.1-15.6l9.4-0.1c0.6,0,6.9,0.8,6.7,6.4l-0.1,3.5c0,0.4-1.6,5.1-5.3,5.6L478.5,521.8L478.5,521.8z"></path>
		<polygon class="st0" points="531.6,496.6 566.7,496.6 566.8,505.2 554,505.6 554,546.7 544.8,546.7 544.8,505.6 531.7,505.6 		"></polygon>
	</g>
</g>
			</svg>